<mxfile host="Electron" agent="Mozilla/5.0 (X11; Linux x86_64) AppleWebKit/537.36 (KHTML, like Gecko) draw.io/24.7.8 Chrome/128.0.6613.36 Electron/32.0.1 Safari/537.36" version="24.7.8">
  <diagram name="Page-1" id="5esAEhPgrrmJ-GZs0nxd">
    <mxGraphModel dx="1354" dy="1073" grid="1" gridSize="10" guides="1" tooltips="1" connect="1" arrows="1" fold="1" page="1" pageScale="1" pageWidth="850" pageHeight="1100" math="1" shadow="0">
      <root>
        <mxCell id="0" />
        <mxCell id="1" parent="0" />
        <mxCell id="4vBauotOSVBSQ-QGE3Cj-2" value="" style="endArrow=blockThin;html=1;rounded=0;endFill=1;strokeWidth=2;" edge="1" parent="1">
          <mxGeometry width="50" height="50" relative="1" as="geometry">
            <mxPoint x="50" y="440" as="sourcePoint" />
            <mxPoint x="440" y="440" as="targetPoint" />
          </mxGeometry>
        </mxCell>
        <mxCell id="4vBauotOSVBSQ-QGE3Cj-11" value="&lt;font size=&quot;1&quot; style=&quot;&quot;&gt;&lt;b style=&quot;font-size: 32px;&quot;&gt;...&lt;/b&gt;&lt;/font&gt;" style="text;html=1;align=center;verticalAlign=middle;whiteSpace=wrap;rounded=0;" vertex="1" parent="1">
          <mxGeometry x="50" y="380" width="60" height="30" as="geometry" />
        </mxCell>
        <mxCell id="4vBauotOSVBSQ-QGE3Cj-22" value="" style="endArrow=blockThin;html=1;rounded=0;strokeWidth=5;strokeColor=#7EA6E0;endFill=1;" edge="1" parent="1">
          <mxGeometry width="50" height="50" relative="1" as="geometry">
            <mxPoint x="120" y="440" as="sourcePoint" />
            <mxPoint x="120" y="360" as="targetPoint" />
          </mxGeometry>
        </mxCell>
        <mxCell id="4vBauotOSVBSQ-QGE3Cj-40" value="" style="endArrow=none;html=1;rounded=0;dashed=1;strokeColor=#919191;strokeWidth=1;" edge="1" parent="1">
          <mxGeometry width="50" height="50" relative="1" as="geometry">
            <mxPoint x="400" y="360" as="sourcePoint" />
            <mxPoint x="79.99999999999986" y="360" as="targetPoint" />
          </mxGeometry>
        </mxCell>
        <mxCell id="4vBauotOSVBSQ-QGE3Cj-41" value="" style="endArrow=blockThin;html=1;rounded=0;strokeWidth=5;strokeColor=#7EA6E0;endFill=1;" edge="1" parent="1">
          <mxGeometry width="50" height="50" relative="1" as="geometry">
            <mxPoint x="200" y="440" as="sourcePoint" />
            <mxPoint x="200" y="360" as="targetPoint" />
          </mxGeometry>
        </mxCell>
        <mxCell id="4vBauotOSVBSQ-QGE3Cj-42" value="" style="endArrow=blockThin;html=1;rounded=0;strokeWidth=5;strokeColor=#7EA6E0;endFill=1;" edge="1" parent="1">
          <mxGeometry width="50" height="50" relative="1" as="geometry">
            <mxPoint x="280" y="440" as="sourcePoint" />
            <mxPoint x="280" y="360" as="targetPoint" />
          </mxGeometry>
        </mxCell>
        <mxCell id="4vBauotOSVBSQ-QGE3Cj-43" value="" style="endArrow=blockThin;html=1;rounded=0;strokeWidth=5;strokeColor=#7EA6E0;endFill=1;" edge="1" parent="1">
          <mxGeometry width="50" height="50" relative="1" as="geometry">
            <mxPoint x="360" y="440" as="sourcePoint" />
            <mxPoint x="360" y="360" as="targetPoint" />
          </mxGeometry>
        </mxCell>
        <mxCell id="4vBauotOSVBSQ-QGE3Cj-44" value="&lt;font size=&quot;1&quot; style=&quot;&quot;&gt;&lt;b style=&quot;font-size: 32px;&quot;&gt;...&lt;/b&gt;&lt;/font&gt;" style="text;html=1;align=center;verticalAlign=middle;whiteSpace=wrap;rounded=0;" vertex="1" parent="1">
          <mxGeometry x="360" y="380" width="60" height="30" as="geometry" />
        </mxCell>
        <mxCell id="4vBauotOSVBSQ-QGE3Cj-45" value="&lt;font style=&quot;font-size: 24px;&quot;&gt;$$t$$&lt;/font&gt;" style="text;html=1;align=center;verticalAlign=middle;whiteSpace=wrap;rounded=0;" vertex="1" parent="1">
          <mxGeometry x="390" y="450" width="60" height="30" as="geometry" />
        </mxCell>
        <mxCell id="4vBauotOSVBSQ-QGE3Cj-46" value="&lt;font style=&quot;font-size: 24px;&quot;&gt;$$1$$&lt;/font&gt;" style="text;html=1;align=center;verticalAlign=middle;whiteSpace=wrap;rounded=0;" vertex="1" parent="1">
          <mxGeometry x="40" y="340" width="60" height="30" as="geometry" />
        </mxCell>
        <mxCell id="4vBauotOSVBSQ-QGE3Cj-47" value="&lt;font style=&quot;font-size: 20px;&quot;&gt;$$T$$&lt;/font&gt;" style="text;html=1;align=center;verticalAlign=middle;whiteSpace=wrap;rounded=0;" vertex="1" parent="1">
          <mxGeometry x="250" y="450" width="60" height="30" as="geometry" />
        </mxCell>
        <mxCell id="4vBauotOSVBSQ-QGE3Cj-48" value="&lt;font style=&quot;font-size: 20px;&quot;&gt;$$2T$$&lt;/font&gt;" style="text;html=1;align=center;verticalAlign=middle;whiteSpace=wrap;rounded=0;" vertex="1" parent="1">
          <mxGeometry x="330" y="450" width="60" height="30" as="geometry" />
        </mxCell>
        <mxCell id="4vBauotOSVBSQ-QGE3Cj-49" value="&lt;font style=&quot;font-size: 20px;&quot;&gt;$$0$$&lt;/font&gt;" style="text;html=1;align=center;verticalAlign=middle;whiteSpace=wrap;rounded=0;" vertex="1" parent="1">
          <mxGeometry x="170" y="450" width="60" height="30" as="geometry" />
        </mxCell>
        <mxCell id="4vBauotOSVBSQ-QGE3Cj-50" value="&lt;font style=&quot;font-size: 20px;&quot;&gt;$$-T$$&lt;/font&gt;" style="text;html=1;align=center;verticalAlign=middle;whiteSpace=wrap;rounded=0;" vertex="1" parent="1">
          <mxGeometry x="90" y="450" width="60" height="30" as="geometry" />
        </mxCell>
        <mxCell id="4vBauotOSVBSQ-QGE3Cj-51" value="" style="endArrow=blockThin;html=1;rounded=0;endFill=1;strokeWidth=2;" edge="1" parent="1">
          <mxGeometry width="50" height="50" relative="1" as="geometry">
            <mxPoint x="568" y="440" as="sourcePoint" />
            <mxPoint x="958" y="440" as="targetPoint" />
          </mxGeometry>
        </mxCell>
        <mxCell id="4vBauotOSVBSQ-QGE3Cj-52" value="&lt;font size=&quot;1&quot; style=&quot;&quot;&gt;&lt;b style=&quot;font-size: 32px;&quot;&gt;...&lt;/b&gt;&lt;/font&gt;" style="text;html=1;align=center;verticalAlign=middle;whiteSpace=wrap;rounded=0;" vertex="1" parent="1">
          <mxGeometry x="568" y="380" width="60" height="30" as="geometry" />
        </mxCell>
        <mxCell id="4vBauotOSVBSQ-QGE3Cj-53" value="" style="endArrow=blockThin;html=1;rounded=0;strokeWidth=5;strokeColor=#7EA6E0;endFill=1;" edge="1" parent="1">
          <mxGeometry width="50" height="50" relative="1" as="geometry">
            <mxPoint x="638" y="440" as="sourcePoint" />
            <mxPoint x="638" y="360" as="targetPoint" />
          </mxGeometry>
        </mxCell>
        <mxCell id="4vBauotOSVBSQ-QGE3Cj-54" value="" style="endArrow=none;html=1;rounded=0;dashed=1;strokeColor=#919191;strokeWidth=1;" edge="1" parent="1">
          <mxGeometry width="50" height="50" relative="1" as="geometry">
            <mxPoint x="918" y="360" as="sourcePoint" />
            <mxPoint x="597.9999999999999" y="360" as="targetPoint" />
          </mxGeometry>
        </mxCell>
        <mxCell id="4vBauotOSVBSQ-QGE3Cj-55" value="" style="endArrow=blockThin;html=1;rounded=0;strokeWidth=5;strokeColor=#7EA6E0;endFill=1;" edge="1" parent="1">
          <mxGeometry width="50" height="50" relative="1" as="geometry">
            <mxPoint x="718" y="440" as="sourcePoint" />
            <mxPoint x="718" y="360" as="targetPoint" />
          </mxGeometry>
        </mxCell>
        <mxCell id="4vBauotOSVBSQ-QGE3Cj-56" value="" style="endArrow=blockThin;html=1;rounded=0;strokeWidth=5;strokeColor=#7EA6E0;endFill=1;" edge="1" parent="1">
          <mxGeometry width="50" height="50" relative="1" as="geometry">
            <mxPoint x="798" y="440" as="sourcePoint" />
            <mxPoint x="798" y="360" as="targetPoint" />
          </mxGeometry>
        </mxCell>
        <mxCell id="4vBauotOSVBSQ-QGE3Cj-57" value="" style="endArrow=blockThin;html=1;rounded=0;strokeWidth=5;strokeColor=#7EA6E0;endFill=1;" edge="1" parent="1">
          <mxGeometry width="50" height="50" relative="1" as="geometry">
            <mxPoint x="878" y="440" as="sourcePoint" />
            <mxPoint x="878" y="360" as="targetPoint" />
          </mxGeometry>
        </mxCell>
        <mxCell id="4vBauotOSVBSQ-QGE3Cj-58" value="&lt;font size=&quot;1&quot; style=&quot;&quot;&gt;&lt;b style=&quot;font-size: 32px;&quot;&gt;...&lt;/b&gt;&lt;/font&gt;" style="text;html=1;align=center;verticalAlign=middle;whiteSpace=wrap;rounded=0;" vertex="1" parent="1">
          <mxGeometry x="878" y="380" width="60" height="30" as="geometry" />
        </mxCell>
        <mxCell id="4vBauotOSVBSQ-QGE3Cj-59" value="&lt;font style=&quot;font-size: 24px;&quot;&gt;$$\omega$$&lt;/font&gt;" style="text;html=1;align=center;verticalAlign=middle;whiteSpace=wrap;rounded=0;" vertex="1" parent="1">
          <mxGeometry x="908" y="450" width="60" height="30" as="geometry" />
        </mxCell>
        <mxCell id="4vBauotOSVBSQ-QGE3Cj-60" value="&lt;font style=&quot;font-size: 24px;&quot;&gt;$$\frac{2\pi}{T}$$&lt;/font&gt;" style="text;html=1;align=center;verticalAlign=middle;whiteSpace=wrap;rounded=0;" vertex="1" parent="1">
          <mxGeometry x="558" y="340" width="60" height="30" as="geometry" />
        </mxCell>
        <mxCell id="4vBauotOSVBSQ-QGE3Cj-69" value="&lt;font style=&quot;font-size: 20px;&quot;&gt;$$0$$&lt;/font&gt;" style="text;html=1;align=center;verticalAlign=middle;whiteSpace=wrap;rounded=0;" vertex="1" parent="1">
          <mxGeometry x="688" y="450" width="60" height="30" as="geometry" />
        </mxCell>
        <mxCell id="4vBauotOSVBSQ-QGE3Cj-70" value="&lt;font style=&quot;font-size: 20px;&quot;&gt;$$-\frac{2\pi}{T}$$&lt;/font&gt;" style="text;html=1;align=center;verticalAlign=middle;whiteSpace=wrap;rounded=0;" vertex="1" parent="1">
          <mxGeometry x="608" y="460" width="60" height="30" as="geometry" />
        </mxCell>
        <mxCell id="4vBauotOSVBSQ-QGE3Cj-71" value="&lt;font style=&quot;font-size: 20px;&quot;&gt;$$\frac{2\pi}{T}$$&lt;/font&gt;" style="text;html=1;align=center;verticalAlign=middle;whiteSpace=wrap;rounded=0;" vertex="1" parent="1">
          <mxGeometry x="758" y="460" width="60" height="30" as="geometry" />
        </mxCell>
        <mxCell id="4vBauotOSVBSQ-QGE3Cj-72" value="&lt;font style=&quot;font-size: 20px;&quot;&gt;$$2\frac{2\pi}{T}$$&lt;/font&gt;" style="text;html=1;align=center;verticalAlign=middle;whiteSpace=wrap;rounded=0;" vertex="1" parent="1">
          <mxGeometry x="851" y="460" width="60" height="30" as="geometry" />
        </mxCell>
        <mxCell id="4vBauotOSVBSQ-QGE3Cj-73" value="" style="endArrow=blockThin;html=1;rounded=0;endFill=1;strokeWidth=2;" edge="1" parent="1">
          <mxGeometry width="50" height="50" relative="1" as="geometry">
            <mxPoint x="49" y="240" as="sourcePoint" />
            <mxPoint x="439" y="240" as="targetPoint" />
          </mxGeometry>
        </mxCell>
        <mxCell id="4vBauotOSVBSQ-QGE3Cj-76" value="" style="endArrow=none;html=1;rounded=0;strokeColor=#919191;strokeWidth=3;" edge="1" parent="1">
          <mxGeometry width="50" height="50" relative="1" as="geometry">
            <mxPoint x="399" y="160" as="sourcePoint" />
            <mxPoint x="78.99999999999986" y="160" as="targetPoint" />
          </mxGeometry>
        </mxCell>
        <mxCell id="4vBauotOSVBSQ-QGE3Cj-81" value="&lt;font style=&quot;font-size: 24px;&quot;&gt;$$t$$&lt;/font&gt;" style="text;html=1;align=center;verticalAlign=middle;whiteSpace=wrap;rounded=0;" vertex="1" parent="1">
          <mxGeometry x="389" y="250" width="60" height="30" as="geometry" />
        </mxCell>
        <mxCell id="4vBauotOSVBSQ-QGE3Cj-82" value="&lt;font style=&quot;font-size: 24px;&quot;&gt;$$1$$&lt;/font&gt;" style="text;html=1;align=center;verticalAlign=middle;whiteSpace=wrap;rounded=0;" vertex="1" parent="1">
          <mxGeometry x="39" y="140" width="60" height="30" as="geometry" />
        </mxCell>
        <mxCell id="4vBauotOSVBSQ-QGE3Cj-87" value="" style="endArrow=blockThin;html=1;rounded=0;endFill=1;strokeWidth=2;" edge="1" parent="1">
          <mxGeometry width="50" height="50" relative="1" as="geometry">
            <mxPoint x="568" y="240" as="sourcePoint" />
            <mxPoint x="958" y="240" as="targetPoint" />
          </mxGeometry>
        </mxCell>
        <mxCell id="4vBauotOSVBSQ-QGE3Cj-90" value="" style="endArrow=none;html=1;rounded=0;dashed=1;strokeColor=#919191;strokeWidth=1;" edge="1" parent="1">
          <mxGeometry width="50" height="50" relative="1" as="geometry">
            <mxPoint x="918" y="160" as="sourcePoint" />
            <mxPoint x="597.9999999999999" y="160" as="targetPoint" />
          </mxGeometry>
        </mxCell>
        <mxCell id="4vBauotOSVBSQ-QGE3Cj-91" value="" style="endArrow=blockThin;html=1;rounded=0;strokeWidth=5;strokeColor=#7EA6E0;endFill=1;" edge="1" parent="1">
          <mxGeometry width="50" height="50" relative="1" as="geometry">
            <mxPoint x="718" y="240" as="sourcePoint" />
            <mxPoint x="718" y="160" as="targetPoint" />
          </mxGeometry>
        </mxCell>
        <mxCell id="4vBauotOSVBSQ-QGE3Cj-95" value="&lt;font style=&quot;font-size: 24px;&quot;&gt;$$\omega$$&lt;/font&gt;" style="text;html=1;align=center;verticalAlign=middle;whiteSpace=wrap;rounded=0;" vertex="1" parent="1">
          <mxGeometry x="908" y="250" width="60" height="30" as="geometry" />
        </mxCell>
        <mxCell id="4vBauotOSVBSQ-QGE3Cj-96" value="&lt;font style=&quot;font-size: 24px;&quot;&gt;$$2\pi$$&lt;/font&gt;" style="text;html=1;align=center;verticalAlign=middle;whiteSpace=wrap;rounded=0;" vertex="1" parent="1">
          <mxGeometry x="558" y="140" width="60" height="30" as="geometry" />
        </mxCell>
        <mxCell id="4vBauotOSVBSQ-QGE3Cj-97" value="&lt;font style=&quot;font-size: 20px;&quot;&gt;$$0$$&lt;/font&gt;" style="text;html=1;align=center;verticalAlign=middle;whiteSpace=wrap;rounded=0;" vertex="1" parent="1">
          <mxGeometry x="688" y="250" width="60" height="30" as="geometry" />
        </mxCell>
        <mxCell id="4vBauotOSVBSQ-QGE3Cj-101" value="&lt;font style=&quot;font-size: 36px;&quot;&gt;$$\overset{FT}{\longrightarrow}$$&lt;/font&gt;" style="text;html=1;align=center;verticalAlign=middle;whiteSpace=wrap;rounded=0;" vertex="1" parent="1">
          <mxGeometry x="470" y="180" width="60" height="30" as="geometry" />
        </mxCell>
        <mxCell id="4vBauotOSVBSQ-QGE3Cj-103" value="&lt;font style=&quot;font-size: 36px;&quot;&gt;$$\overset{FT}{\longrightarrow}$$&lt;/font&gt;" style="text;html=1;align=center;verticalAlign=middle;whiteSpace=wrap;rounded=0;" vertex="1" parent="1">
          <mxGeometry x="470" y="370" width="60" height="30" as="geometry" />
        </mxCell>
        <mxCell id="4vBauotOSVBSQ-QGE3Cj-104" value="" style="endArrow=blockThin;html=1;rounded=0;strokeWidth=3;endFill=1;" edge="1" parent="1">
          <mxGeometry width="50" height="50" relative="1" as="geometry">
            <mxPoint x="240" y="270" as="sourcePoint" />
            <mxPoint x="240" y="330" as="targetPoint" />
          </mxGeometry>
        </mxCell>
        <mxCell id="4vBauotOSVBSQ-QGE3Cj-105" value="&lt;font style=&quot;font-size: 20px;&quot;&gt;sampling&lt;/font&gt;" style="text;html=1;align=center;verticalAlign=middle;whiteSpace=wrap;rounded=0;" vertex="1" parent="1">
          <mxGeometry x="260" y="280" width="60" height="30" as="geometry" />
        </mxCell>
      </root>
    </mxGraphModel>
  </diagram>
</mxfile>
